<svg version="1.2" baseProfile="tiny-ps" xmlns="http://www.w3.org/2000/svg" viewBox="0 0 1488 1681" width="1488" height="1681"><title>Unity_2021-svg</title><style>tspan { white-space:pre }.shp0 { fill: #4c4c4c } .shp1 { fill: #000000 } .shp2 { fill: #808080 } </style><g id="g849"><path id="path6" class="shp0" d="M1487.5 1176.11L1487.5 392.04L808.5 0L808.5 301.03L1074.5 455.04C1085 462.04 1085 476.05 1074.5 479.55L759.5 661.56C749 668.56 738.5 665.06 731.5 661.56L416.5 479.55C406 476.05 406 458.54 416.5 455.04L682.5 301.03L682.5 0L0 392.04L0 1176.11L0 1172.61L0 1176.11L259 1025.6L259 717.57C259 707.07 273 700.07 280 703.57L595 885.58C605.5 892.58 609 899.59 609 910.09L609 1274.12C609 1284.62 595 1291.62 588 1288.12L322 1134.11L63 1284.62L742 1680.16L1421 1288.12L1162 1137.61L896 1291.62C885.5 1298.62 875 1291.62 875 1277.62L875 913.59C875 903.09 882 892.58 889 889.08L1204 707.07C1214.5 700.07 1225 707.07 1225 721.07L1225 1029.1L1487.5 1176.11Z" /><path id="path8" class="shp1" d="M742 1680.16L1421 1288.12L1162 1137.61L896 1291.62C885.5 1298.62 875 1291.62 875 1277.62L875 913.59C875 903.09 882 892.58 889 889.08L1204 707.07C1214.5 700.07 1225 707.07 1225 721.07L1225 1029.1L1484 1179.61L1484 392.04L742 822.58L742 1680.16Z" /><path id="path10" class="shp2" d="M808.5 0L808.5 301.03L1074.5 455.04C1085 462.04 1085 476.05 1074.5 479.55L759.5 661.56C749 668.56 738.5 665.06 731.5 661.56L416.5 479.55C406 476.05 406 458.54 416.5 455.04L682.5 301.03L682.5 0L0 392.04L742 822.58L1484 392.04L808.5 0Z" /><path id="path12" class="shp0" d="M591.5 1291.62L325.5 1137.61L66.5 1288.12L745.5 1680.16L745.5 822.58L0 392.04L0 1176.11L0 1172.61L0 1176.11L259 1025.6L259 717.57C259 707.07 273 700.07 280 703.57L595 885.58C605.5 892.58 609 899.59 609 910.09L609 1274.12C612.5 1288.12 602 1298.62 591.5 1291.62L591.5 1291.62Z" /></g></svg>